<?xml version="1.0" encoding="utf-8"?>
<!-- Generator: Adobe Illustrator 26.1.0, SVG Export Plug-In . SVG Version: 6.00 Build 0)  -->
<svg version="1.1" id="Layer_1" xmlns="http://www.w3.org/2000/svg" xmlns:xlink="http://www.w3.org/1999/xlink" x="0px" y="0px"
	 viewBox="0 0 480.79 109.12" style="enable-background:new 0 0 480.79 109.12;" xml:space="preserve">
<path d="M71.04,43.86H39.45l3.14-17.66h37.72c1.8,0,2.84-0.9,3.14-2.69l3.29-20.21c0.2-1,0.05-1.8-0.45-2.39
	C85.8,0.3,85.05,0,84.06,0H21.19c-1.8,0-2.84,0.9-3.14,2.69L0.09,103.73c-0.2,1-0.05,1.8,0.45,2.39c0.5,0.6,1.25,0.9,2.25,0.9h22.75
	c1.8,0,2.84-0.9,3.14-2.69l6.29-34.43h32.03c1.8,0,2.84-0.9,3.14-2.69l3.74-20.06c0.1-1-0.07-1.8-0.52-2.39
	C72.91,44.16,72.13,43.86,71.04,43.86z"/>
<path d="M139.89,30.39c-4.79-2.39-10.23-3.59-16.31-3.59c-10.98,0-19.96,2.6-26.94,7.78c-6.99,5.19-11.33,12.62-13.02,22.3
	l-2.99,17.06c-0.4,2-0.6,4.09-0.6,6.29c0,5.59,1.27,10.55,3.82,14.89c2.54,4.34,6.14,7.76,10.78,10.25
	c4.64,2.49,9.95,3.74,15.94,3.74c23.65,0,37.22-10.13,40.71-30.39l3.14-17.81c0.4-2.79,0.6-4.79,0.6-5.99
	c0-5.39-1.32-10.23-3.97-14.52C148.39,36.12,144.68,32.78,139.89,30.39z M127.01,59.42l-3.29,17.96c-1,5.39-4.19,8.08-9.58,8.08
	c-2,0-3.59-0.57-4.79-1.72c-1.2-1.15-1.8-2.72-1.8-4.71c0-0.5,0.1-1.25,0.3-2.25l3.29-18.41c0.5-2.49,1.57-4.46,3.22-5.91
	c1.65-1.45,3.72-2.17,6.21-2.17c2.1,0,3.74,0.62,4.94,1.87c1.2,1.25,1.8,2.92,1.8,5.01C127.31,57.68,127.21,58.43,127.01,59.42z"/>
<path d="M236.43,28.89h-21.4c-1.8,0-2.84,0.9-3.14,2.69l-9.13,52.99c-1.6,0.7-3.44,1.05-5.54,1.05c-4.49,0-6.74-2.34-6.74-7.04
	c0-0.7,0.1-1.84,0.3-3.44l7.19-42.96c0.2-1,0.05-1.8-0.45-2.39c-0.5-0.6-1.25-0.9-2.25-0.9h-21.11c-1.8,0-2.84,0.9-3.14,2.69
	L163.83,72c-0.5,3.49-0.75,6.44-0.75,8.83c0,8.88,2.57,15.82,7.71,20.81c5.14,4.99,12.7,7.48,22.68,7.48
	c4.69,0,9.85-0.55,15.49-1.65c5.64-1.1,10.85-2.59,15.64-4.49c1.4-0.6,2.25-1.65,2.54-3.14l11.97-67.66c0.2-1,0.05-1.8-0.45-2.39
	C238.17,29.19,237.43,28.89,236.43,28.89z"/>
<path d="M294.96,28.14c-4.09-0.9-7.79-1.35-11.08-1.35c-10.28,0-20.06,2.2-29.34,6.59c-1.4,0.7-2.25,1.8-2.55,3.29l-11.67,67.06
	c-0.2,1-0.05,1.8,0.45,2.39c0.5,0.6,1.25,0.9,2.25,0.9h21.25c1.8,0,2.84-0.9,3.14-2.69l9.13-51.19c2.6-0.9,5.29-1.35,8.08-1.35
	c1.99,0,3.99,0.15,5.99,0.45c1,0.2,1.82,0.08,2.47-0.37c0.65-0.45,1.02-1.12,1.12-2.02l3.14-18.11
	C297.65,29.74,296.85,28.54,294.96,28.14z"/>
<path d="M370.32,3.29C365.68,1.1,360.26,0,354.08,0h-36.82c-1.8,0-2.84,0.9-3.14,2.69l-17.66,101.04c-0.2,1-0.05,1.8,0.45,2.39
	c0.5,0.6,1.25,0.9,2.25,0.9h38.92c13.27,0,23.37-2.79,30.31-8.38c6.93-5.59,11.3-13.72,13.1-24.4c0.3-1.8,0.45-3.44,0.45-4.94
	c0-4.29-0.95-8.01-2.84-11.15c-1.9-3.14-4.49-5.66-7.78-7.56c3.59-1.89,6.48-4.49,8.68-7.78c2.19-3.29,3.64-7.08,4.34-11.38
	c0.3-2,0.45-3.84,0.45-5.54c0-4.99-1.25-9.45-3.74-13.4C378.53,8.56,374.96,5.49,370.32,3.29z M352.43,71.85
	c-1.1,6.49-5.04,9.73-11.83,9.73h-11.83l3.29-18.41h11.68c5.89,0,8.83,2.3,8.83,6.89C352.58,70.85,352.53,71.45,352.43,71.85z
	 M355.28,32.33c-0.5,2.79-1.55,4.84-3.14,6.14c-1.6,1.3-3.94,1.95-7.04,1.95h-8.98l2.69-15.72h8.68c5.39,0,8.08,1.85,8.08,5.54
	C355.58,30.64,355.48,31.34,355.28,32.33z"/>
<path d="M411.78,44.49c-4.65,0-8.37-1.52-11.17-4.56c-0.68-0.73-1.27-1.52-1.78-2.35l-11.67,66.15c-0.1,1,0.1,1.8,0.6,2.39
	c0.5,0.6,1.25,0.9,2.25,0.9h21.11c1.8,0,2.84-0.9,3.14-2.69l11.59-65.7c-0.04,0.05-0.08,0.09-0.12,0.14
	C422.14,42.58,417.5,44.49,411.78,44.49z"/>
<path d="M480.26,32.18c-0.5-0.6-1.25-0.9-2.25-0.9h-10.63l0.9-17.66c0.2-2.1-0.8-3.14-2.99-3.14h-18.41c-1.9,0-2.99,0.9-3.3,2.69
	l-10.63,61.37c-0.6,3.59-0.9,6.84-0.9,9.73c0,8.18,2.17,14.37,6.51,18.56c4.34,4.19,10.6,6.29,18.79,6.29
	c3.19,0,6.29-0.35,9.28-1.05c1.6-0.3,2.55-1.3,2.84-2.99l2.99-16.91c0.2-1,0.1-1.74-0.3-2.25c-0.4-0.5-1.05-0.75-1.95-0.75h-0.75
	l-3.14,0.15c-4.49,0-6.74-2.09-6.74-6.29c0-1,0.05-1.74,0.15-2.25l4.04-22.75h10.93c1.8,0,2.84-0.9,3.14-2.69l2.84-16.76
	C480.9,33.58,480.75,32.78,480.26,32.18z"/>
<circle cx="413.57" cy="20.12" r="17.46"/>
</svg>
